HIERARCHY
ROOT Hips
{
	OFFSET 0.000000 97.420761 0.000000
	CHANNELS 6 Xposition Yposition Zposition Xrotation Yrotation Zrotation
	JOINT RightUpLeg
	{
		OFFSET -8.571318 0.002251 -0.000250
		CHANNELS 6 Xposition Yposition Zposition Xrotation Yrotation Zrotation
		JOINT RightLeg
		{
			OFFSET 0.000000 -44.326080 -0.000105
			CHANNELS 6 Xposition Yposition Zposition Xrotation Yrotation Zrotation
			JOINT RightFoot
			{
				OFFSET 0.000000 -43.324329 -0.000176
				CHANNELS 6 Xposition Yposition Zposition Xrotation Yrotation Zrotation
				JOINT RightToeBase
				{
					OFFSET 0.000000 -7.938133 18.050686
					CHANNELS 6 Xposition Yposition Zposition Xrotation Yrotation Zrotation
					End Site
					{
						OFFSET 0.000000 0.000000 19.719055
					}
				}
			}
		}
	}
	JOINT LeftUpLeg
	{
		OFFSET 8.571318 -0.000084 0.000009
		CHANNELS 6 Xposition Yposition Zposition Xrotation Yrotation Zrotation
		JOINT LeftLeg
		{
			OFFSET 0.000000 -44.326080 -0.000105
			CHANNELS 6 Xposition Yposition Zposition Xrotation Yrotation Zrotation
			JOINT LeftFoot
			{
				OFFSET 0.000000 -43.324329 -0.000176
				CHANNELS 6 Xposition Yposition Zposition Xrotation Yrotation Zrotation
				JOINT LeftToeBase
				{
					OFFSET 0.000000 -7.938133 18.050686
					CHANNELS 6 Xposition Yposition Zposition Xrotation Yrotation Zrotation
					End Site
					{
						OFFSET 0.000000 0.000000 19.719055
					}
				}
			}
		}
	}
	JOINT Spine
	{
		OFFSET 0.000000 10.422829 -1.158092
		CHANNELS 6 Xposition Yposition Zposition Xrotation Yrotation Zrotation
		JOINT Spine1
		{
			OFFSET 0.000000 11.587624 0.000000
			CHANNELS 3 Xrotation Yrotation Zrotation
			JOINT Spine2
			{
				OFFSET 0.000000 10.579559 -0.000443
				CHANNELS 6 Xposition Yposition Zposition Xrotation Yrotation Zrotation
				JOINT Spine3
				{
					OFFSET 0.000000 10.567749 -0.000444
					CHANNELS 6 Xposition Yposition Zposition Xrotation Yrotation Zrotation
					JOINT LeftShoulder
					{
						OFFSET 3.218383 8.290512 0.000000
						CHANNELS 6 Xposition Yposition Zposition Xrotation Yrotation Zrotation
						JOINT LeftArm
						{
							OFFSET 15.038529 0.000000 0.000000
							CHANNELS 3 Xrotation Yrotation Zrotation
							JOINT LeftForeArm
							{
								OFFSET 32.129166 0.000000 0.000000
								CHANNELS 3 Xrotation Yrotation Zrotation
								JOINT LeftHand
								{
									OFFSET 26.275406 0.000000 0.000000
									CHANNELS 3 Xrotation Yrotation Zrotation
									End Site
									{
										OFFSET 26.275406 0.000000 0.000000
									}
								}
							}
						}
					}
					JOINT RightShoulder
					{
						OFFSET -3.218383 8.290512 0.000000
						CHANNELS 6 Xposition Yposition Zposition Xrotation Yrotation Zrotation
						JOINT RightArm
						{
							OFFSET -15.038529 0.000000 0.000000
							CHANNELS 3 Xrotation Yrotation Zrotation
							JOINT RightForeArm
							{
								OFFSET -32.129166 0.000000 0.000000
								CHANNELS 3 Xrotation Yrotation Zrotation
								JOINT RightHand
								{
									OFFSET -26.275406 0.000000 0.000000
									CHANNELS 3 Xrotation Yrotation Zrotation
									End Site
									{
										OFFSET -26.275406 0.000000 0.000000
									}
								}
							}
						}
					}
					JOINT Neck
					{
						OFFSET 0.000000 14.789474 0.000000
						CHANNELS 6 Xposition Yposition Zposition Xrotation Yrotation Zrotation
						JOINT Head
						{
							OFFSET 0.000000 9.838806 0.000953
							CHANNELS 6 Xposition Yposition Zposition Xrotation Yrotation Zrotation
							End Site
							{
								OFFSET 0.000000 9.838806 0.000000
							}
						}
					}
				}
			}
		}
	}
}
MOTION
Frames: 4
Frame Time: 0.016667
-108.145653 24.285873 240.200714 -86.137968 -4.292949 73.450857 -8.571298 0.002268 -0.000249 -20.255191 -8.093358 0.681556 0.000020 -44.326080 -0.000093 68.788106 -0.167351 -0.044425 -0.000002 -43.324322 -0.000176 9.563072 -8.210965 8.028954 0.000002 -7.938133 18.050690 -0.000001 0.000002 0.000002 8.571349 -0.000073 0.000012 -32.604290 -5.042191 1.216291 0.000021 -44.326080 -0.000106 102.608757 0.816707 0.273660 0.000009 -43.324326 -0.000173 -2.139763 -13.522533 -15.702965 0.000005 -7.938124 18.050671 0.000000 0.000001 0.000001 0.000047 10.422840 -1.158092 4.016220 0.029944 -1.291285 -4.041157 0.082584 -0.568178 0.000003 10.579566 -0.000442 1.779275 0.082642 -0.568161 -0.000008 10.567755 -0.000442 7.170905 0.020037 -0.430140 3.218400 8.290542 0.000001 11.446837 -3.467366 -4.114722 20.377021 33.186448 -66.775939 23.372144 -53.800594 -28.960378 6.355608 14.947428 22.240117 -3.218379 8.290530 0.000004 7.699812 8.697429 4.616486 25.907908 -11.931608 66.195359 3.298174 43.479311 14.984021 20.137368 -17.090954 -1.668038 -0.000007 14.789496 0.000002 26.740327 1.097893 -1.881904 0.000042 9.838807 0.000951 13.673326 2.408815 -3.220586 
-108.434799 24.236267 240.048798 -86.247879 -4.329415 73.466164 -8.571342 0.002258 -0.000249 -20.591559 -7.857765 0.702015 0.000002 -44.326065 -0.000104 69.435710 -0.114635 0.074083 -0.000004 -43.324329 -0.000167 8.361703 -8.324366 7.929854 0.000003 -7.938134 18.050686 -0.000000 -0.000001 -0.000002 8.571306 -0.000075 0.000012 -32.232585 -5.112061 1.326047 0.000010 -44.326084 -0.000091 102.344033 0.934912 0.156008 -0.000003 -43.324329 -0.000179 -2.019341 -13.598986 -15.915720 -0.000002 -7.938134 18.050667 -0.000001 -0.000001 -0.000001 -0.000002 10.422834 -1.158092 3.823744 -0.020319 -1.264676 -4.126571 0.058456 -0.559188 0.000003 10.579579 -0.000442 1.693861 0.058514 -0.559182 0.000005 10.567752 -0.000444 7.106872 0.002606 -0.421675 3.218393 8.290483 0.000002 11.612388 -3.731120 -4.239202 19.929165 33.452112 -66.778316 23.664809 -53.126229 -28.811278 6.263618 15.326972 21.809812 -3.218371 8.290480 0.000006 8.096109 9.239832 4.808561 25.286709 -12.452634 66.063509 3.919351 42.800042 14.721086 19.904102 -16.970107 -1.612853 0.000017 14.789466 0.000005 26.659106 1.081129 -1.872006 0.000000 9.838799 0.000943 13.521836 2.378128 -3.204742 
-108.687653 24.314125 239.951248 -86.370317 -4.346039 73.499386 -8.571301 0.002269 -0.000245 -20.918228 -7.671166 0.716032 -0.000003 -44.326088 -0.000113 70.178684 -0.207327 0.191004 0.000008 -43.324326 -0.000185 7.238743 -8.292698 7.745288 -0.000055 -7.938132 18.050686 -0.000002 -0.000002 0.000003 8.571358 -0.000076 0.000016 -31.884539 -5.117357 1.423906 -0.000001 -44.326080 -0.000098 102.326944 0.955889 0.074330 -0.000008 -43.324322 -0.000171 -2.144472 -13.787702 -16.010797 0.000007 -7.938131 18.050686 -0.000000 0.000002 0.000001 0.000029 10.422826 -1.158089 3.493884 -0.072161 -1.252841 -4.273039 0.034061 -0.556774 0.000003 10.579564 -0.000443 1.547393 0.034120 -0.556779 0.000024 10.567729 -0.000444 6.997045 -0.015558 -0.418091 3.218371 8.290527 -0.000002 11.570264 -3.745075 -4.129995 20.120858 33.153649 -66.976514 23.456847 -52.293824 -28.872306 6.254944 15.742135 21.213550 -3.218384 8.290511 0.000003 8.237927 9.272601 4.700991 25.207636 -12.126932 66.139146 4.535889 42.029883 14.367482 19.559681 -16.882254 -1.697481 -0.000022 14.789461 0.000004 26.573319 1.051356 -1.839819 -0.000019 9.838823 0.000948 13.360881 2.318957 -3.150724 
-108.929436 24.451134 239.868683 -86.504312 -4.356014 73.538803 -8.571321 0.002246 -0.000248 -21.268186 -7.494323 0.730263 -0.000018 -44.326077 -0.000098 71.030361 -0.364359 0.313497 -0.000018 -43.324326 -0.000186 6.130334 -8.170296 7.498144 0.000002 -7.938139 18.050678 -0.000001 0.000001 -0.000000 8.571330 -0.000085 0.000015 -31.541752 -5.091545 1.518230 0.000007 -44.326080 -0.000111 102.414459 0.917310 0.008426 0.000010 -43.324326 -0.000177 -2.373364 -14.032245 -16.059675 0.000024 -7.938133 18.050694 -0.000003 -0.000001 0.000000 0.000010 10.422829 -1.158089 3.103870 -0.124745 -1.248005 -4.446238 0.009543 -0.557411 0.000007 10.579542 -0.000441 1.374194 0.009602 -0.557416 0.000014 10.567760 -0.000443 6.867168 -0.034063 -0.416744 3.218377 8.290545 -0.000000 11.456919 -3.663946 -3.923901 20.560273 32.623719 -67.264905 23.011155 -51.355725 -29.030763 6.287647 16.190171 20.502724 -3.218378 8.290512 0.000001 8.296175 9.103507 4.456899 25.332362 -11.417005 66.342379 5.203637 41.171117 13.893101 19.157349 -16.792474 -1.828235 0.000015 14.789482 0.000001 26.477157 1.014544 -1.796367 -0.000004 9.838795 0.000964 13.180196 2.244659 -3.077427 
